<svg width="47" height="49" viewBox="0 0 47 49" fill="none" xmlns="http://www.w3.org/2000/svg">
<path d="M23.526 28.1833C22.9897 28.1833 22.5406 27.9921 22.1784 27.6097C21.815 27.2287 21.6334 26.756 21.6334 26.1917C21.6334 25.6274 21.815 25.154 22.1784 24.7716C22.5406 24.3905 22.9897 24.2 23.526 24.2C24.0622 24.2 24.5121 24.3905 24.8755 24.7716C25.2376 25.154 25.4186 25.6274 25.4186 26.1917C25.4186 26.756 25.2376 27.2287 24.8755 27.6097C24.5121 27.9921 24.0622 28.1833 23.526 28.1833ZM15.9554 28.1833C15.4192 28.1833 14.9693 27.9921 14.606 27.6097C14.2438 27.2287 14.0628 26.756 14.0628 26.1917C14.0628 25.6274 14.2438 25.154 14.606 24.7716C14.9693 24.3905 15.4192 24.2 15.9554 24.2C16.4917 24.2 16.9415 24.3905 17.3049 24.7716C17.667 25.154 17.8481 25.6274 17.8481 26.1917C17.8481 26.756 17.667 27.2287 17.3049 27.6097C16.9415 27.9921 16.4917 28.1833 15.9554 28.1833ZM31.0966 28.1833C30.5603 28.1833 30.1111 27.9921 29.749 27.6097C29.3856 27.2287 29.2039 26.756 29.2039 26.1917C29.2039 25.6274 29.3856 25.154 29.749 24.7716C30.1111 24.3905 30.5603 24.2 31.0966 24.2C31.6328 24.2 32.082 24.3905 32.4441 24.7716C32.8075 25.154 32.9892 25.6274 32.9892 26.1917C32.9892 26.756 32.8075 27.2287 32.4441 27.6097C32.082 27.9921 31.6328 28.1833 31.0966 28.1833ZM23.526 36.15C22.9897 36.15 22.5406 35.9588 22.1784 35.5764C21.815 35.1953 21.6334 34.7226 21.6334 34.1583C21.6334 33.594 21.815 33.1213 22.1784 32.7403C22.5406 32.3579 22.9897 32.1667 23.526 32.1667C24.0622 32.1667 24.5121 32.3579 24.8755 32.7403C25.2376 33.1213 25.4186 33.594 25.4186 34.1583C25.4186 34.7226 25.2376 35.1953 24.8755 35.5764C24.5121 35.9588 24.0622 36.15 23.526 36.15ZM15.9554 36.15C15.4192 36.15 14.9693 35.9588 14.606 35.5764C14.2438 35.1953 14.0628 34.7226 14.0628 34.1583C14.0628 33.594 14.2438 33.1213 14.606 32.7403C14.9693 32.3579 15.4192 32.1667 15.9554 32.1667C16.4917 32.1667 16.9415 32.3579 17.3049 32.7403C17.667 33.1213 17.8481 33.594 17.8481 34.1583C17.8481 34.7226 17.667 35.1953 17.3049 35.5764C16.9415 35.9588 16.4917 36.15 15.9554 36.15ZM31.0966 36.15C30.5603 36.15 30.1111 35.9588 29.749 35.5764C29.3856 35.1953 29.2039 34.7226 29.2039 34.1583C29.2039 33.594 29.3856 33.1213 29.749 32.7403C30.1111 32.3579 30.5603 32.1667 31.0966 32.1667C31.6328 32.1667 32.082 32.3579 32.4441 32.7403C32.8075 33.1213 32.9892 33.594 32.9892 34.1583C32.9892 34.7226 32.8075 35.1953 32.4441 35.5764C32.082 35.9588 31.6328 36.15 31.0966 36.15ZM10.2775 44.1167C9.23652 44.1167 8.34509 43.727 7.60317 42.9476C6.86251 42.1668 6.49219 41.2287 6.49219 40.1333V12.25C6.49219 11.1546 6.86251 10.2172 7.60317 9.43776C8.34509 8.65703 9.23652 8.26666 10.2775 8.26666H12.1701V4.28333H15.9554V8.26666H31.0966V4.28333H34.8819V8.26666H36.7745C37.8155 8.26666 38.7069 8.65703 39.4488 9.43776C40.1895 10.2172 40.5598 11.1546 40.5598 12.25V40.1333C40.5598 41.2287 40.1895 42.1668 39.4488 42.9476C38.7069 43.727 37.8155 44.1167 36.7745 44.1167H10.2775ZM10.2775 40.1333H36.7745V20.2167H10.2775V40.1333Z" fill="white"/>
</svg>
