<svg width="40" height="37" viewBox="0 0 40 37" fill="none" xmlns="http://www.w3.org/2000/svg">
<g filter="url(#filter0_d_236_1081)">
<path d="M16.6667 26.6667V18.3333H23.3334V26.6667C23.3334 27.5833 24.0834 28.3333 25 28.3333H30C30.9167 28.3333 31.6667 27.5833 31.6667 26.6667V15H34.5C35.2667 15 35.6334 14.05 35.05 13.55L21.1167 1.00001C20.4834 0.433345 19.5167 0.433345 18.8834 1.00001L4.95004 13.55C4.38337 14.05 4.73337 15 5.50004 15H8.33337V26.6667C8.33337 27.5833 9.08337 28.3333 10 28.3333H15C15.9167 28.3333 16.6667 27.5833 16.6667 26.6667Z" fill="url(#paint0_linear_236_1081)"/>
</g>
<defs>
<filter id="filter0_d_236_1081" x="0.670288" y="0.575012" width="38.6669" height="35.7583" filterUnits="userSpaceOnUse" color-interpolation-filters="sRGB">
<feFlood flood-opacity="0" result="BackgroundImageFix"/>
<feColorMatrix in="SourceAlpha" type="matrix" values="0 0 0 0 0 0 0 0 0 0 0 0 0 0 0 0 0 0 127 0" result="hardAlpha"/>
<feOffset dy="4"/>
<feGaussianBlur stdDeviation="2"/>
<feComposite in2="hardAlpha" operator="out"/>
<feColorMatrix type="matrix" values="0 0 0 0 0 0 0 0 0 0 0 0 0 0 0 0 0 0 0.5 0"/>
<feBlend mode="normal" in2="BackgroundImageFix" result="effect1_dropShadow_236_1081"/>
<feBlend mode="normal" in="SourceGraphic" in2="effect1_dropShadow_236_1081" result="shape"/>
</filter>
<linearGradient id="paint0_linear_236_1081" x1="3.99988" y1="13.5001" x2="38.4999" y2="18.5001" gradientUnits="userSpaceOnUse">
<stop stop-color="#01919C"/>
<stop offset="1" stop-color="#FFF500"/>
</linearGradient>
</defs>
</svg>
