<svg width="40" height="40" viewBox="0 0 40 40" fill="none" xmlns="http://www.w3.org/2000/svg">
<path d="M20 23.3333C19.5278 23.3333 19.1322 23.1733 18.8133 22.8533C18.4933 22.5345 18.3333 22.1389 18.3333 21.6667C18.3333 21.1945 18.4933 20.7983 18.8133 20.4783C19.1322 20.1595 19.5278 20 20 20C20.4722 20 20.8683 20.1595 21.1883 20.4783C21.5072 20.7983 21.6667 21.1945 21.6667 21.6667C21.6667 22.1389 21.5072 22.5345 21.1883 22.8533C20.8683 23.1733 20.4722 23.3333 20 23.3333ZM13.3333 23.3333C12.8611 23.3333 12.465 23.1733 12.145 22.8533C11.8261 22.5345 11.6667 22.1389 11.6667 21.6667C11.6667 21.1945 11.8261 20.7983 12.145 20.4783C12.465 20.1595 12.8611 20 13.3333 20C13.8056 20 14.2017 20.1595 14.5217 20.4783C14.8406 20.7983 15 21.1945 15 21.6667C15 22.1389 14.8406 22.5345 14.5217 22.8533C14.2017 23.1733 13.8056 23.3333 13.3333 23.3333ZM26.6667 23.3333C26.1944 23.3333 25.7989 23.1733 25.48 22.8533C25.16 22.5345 25 22.1389 25 21.6667C25 21.1945 25.16 20.7983 25.48 20.4783C25.7989 20.1595 26.1944 20 26.6667 20C27.1389 20 27.5344 20.1595 27.8533 20.4783C28.1733 20.7983 28.3333 21.1945 28.3333 21.6667C28.3333 22.1389 28.1733 22.5345 27.8533 22.8533C27.5344 23.1733 27.1389 23.3333 26.6667 23.3333ZM20 30C19.5278 30 19.1322 29.84 18.8133 29.52C18.4933 29.2011 18.3333 28.8056 18.3333 28.3333C18.3333 27.8611 18.4933 27.4656 18.8133 27.1467C19.1322 26.8267 19.5278 26.6667 20 26.6667C20.4722 26.6667 20.8683 26.8267 21.1883 27.1467C21.5072 27.4656 21.6667 27.8611 21.6667 28.3333C21.6667 28.8056 21.5072 29.2011 21.1883 29.52C20.8683 29.84 20.4722 30 20 30ZM13.3333 30C12.8611 30 12.465 29.84 12.145 29.52C11.8261 29.2011 11.6667 28.8056 11.6667 28.3333C11.6667 27.8611 11.8261 27.4656 12.145 27.1467C12.465 26.8267 12.8611 26.6667 13.3333 26.6667C13.8056 26.6667 14.2017 26.8267 14.5217 27.1467C14.8406 27.4656 15 27.8611 15 28.3333C15 28.8056 14.8406 29.2011 14.5217 29.52C14.2017 29.84 13.8056 30 13.3333 30ZM26.6667 30C26.1944 30 25.7989 29.84 25.48 29.52C25.16 29.2011 25 28.8056 25 28.3333C25 27.8611 25.16 27.4656 25.48 27.1467C25.7989 26.8267 26.1944 26.6667 26.6667 26.6667C27.1389 26.6667 27.5344 26.8267 27.8533 27.1467C28.1733 27.4656 28.3333 27.8611 28.3333 28.3333C28.3333 28.8056 28.1733 29.2011 27.8533 29.52C27.5344 29.84 27.1389 30 26.6667 30ZM8.33333 36.6667C7.41667 36.6667 6.63167 36.3406 5.97833 35.6883C5.32611 35.035 5 34.25 5 33.3333V10C5 9.08334 5.32611 8.2989 5.97833 7.64668C6.63167 6.99334 7.41667 6.66668 8.33333 6.66668H10V3.33334H13.3333V6.66668H26.6667V3.33334H30V6.66668H31.6667C32.5833 6.66668 33.3683 6.99334 34.0217 7.64668C34.6739 8.2989 35 9.08334 35 10V33.3333C35 34.25 34.6739 35.035 34.0217 35.6883C33.3683 36.3406 32.5833 36.6667 31.6667 36.6667H8.33333ZM8.33333 33.3333H31.6667V16.6667H8.33333V33.3333Z" fill="#01919C"/>
</svg>
