<svg width="16" height="16" viewBox="0 0 16 16" fill="none" xmlns="http://www.w3.org/2000/svg">
<path d="M3.33333 12.6667H4.26667L10.0167 6.91668L9.08333 5.98334L3.33333 11.7333V12.6667ZM12.8667 5.95001L10.0333 3.15001L10.9667 2.21668C11.2222 1.96112 11.5362 1.83334 11.9087 1.83334C12.2811 1.83334 12.5949 1.96112 12.85 2.21668L13.7833 3.15001C14.0389 3.40557 14.1722 3.71401 14.1833 4.07534C14.1944 4.43668 14.0722 4.7449 13.8167 5.00001L12.8667 5.95001ZM11.9 6.93334L4.83333 14H2V11.1667L9.06667 4.10001L11.9 6.93334ZM9.55 6.45001L9.08333 5.98334L10.0167 6.91668L9.55 6.45001Z" fill="white"/>
</svg>
