<svg width="40" height="40" viewBox="0 0 40 40" fill="none" xmlns="http://www.w3.org/2000/svg">
<path d="M14.75 29.7083L20 26.5417L25.25 29.75L23.875 23.75L28.5 19.75L22.4167 19.2083L20 13.5417L17.5833 19.1667L11.5 19.7083L16.125 23.75L14.75 29.7083ZM20 30.4583L13.0833 34.625C12.7778 34.8194 12.4583 34.9028 12.125 34.875C11.7917 34.8472 11.5 34.7361 11.25 34.5417C11 34.3472 10.8056 34.1044 10.6667 33.8133C10.5278 33.5211 10.5 33.1944 10.5833 32.8333L12.4167 24.9583L6.29166 19.6667C6.01388 19.4167 5.84055 19.1317 5.77166 18.8117C5.70166 18.4928 5.72222 18.1806 5.83333 17.875C5.94444 17.5694 6.11111 17.3194 6.33333 17.125C6.55555 16.9306 6.86111 16.8056 7.24999 16.75L15.3333 16.0417L18.4583 8.625C18.5972 8.29167 18.8128 8.04167 19.105 7.875C19.3961 7.70833 19.6944 7.625 20 7.625C20.3056 7.625 20.6044 7.70833 20.8967 7.875C21.1878 8.04167 21.4028 8.29167 21.5417 8.625L24.6667 16.0417L32.75 16.75C33.1389 16.8056 33.4444 16.9306 33.6667 17.125C33.8889 17.3194 34.0555 17.5694 34.1667 17.875C34.2778 18.1806 34.2989 18.4928 34.23 18.8117C34.16 19.1317 33.9861 19.4167 33.7083 19.6667L27.5833 24.9583L29.4167 32.8333C29.5 33.1944 29.4722 33.5211 29.3333 33.8133C29.1944 34.1044 29 34.3472 28.75 34.5417C28.5 34.7361 28.2083 34.8472 27.875 34.875C27.5417 34.9028 27.2222 34.8194 26.9167 34.625L20 30.4583Z" fill="#01919C"/>
</svg>
