<svg width="146" height="84" viewBox="0 0 146 84" fill="none" xmlns="http://www.w3.org/2000/svg">
<rect x="58.3182" y="3.83411" width="29.5748" height="79.6244" fill="#00282C"/>
<path d="M57.1809 1.10381C57.9999 1.46781 58.3563 2.99963 58.4321 3.72004C68.1766 3.87171 87.6429 4.08404 87.5519 3.72004C87.4609 3.35605 88.1207 1.82423 88.4619 1.10381C77.6936 0.952148 56.3619 0.739816 57.1809 1.10381Z" fill="#00282C"/>
<rect x="7.35889" y="55.7036" width="24.1148" height="27.7548" fill="#00282C"/>
<path d="M7.13134 55.7034H31.4737C31.322 47.6272 31.8522 31.386 31.4737 31.1336C30.7912 30.6786 20.895 33.8636 14.6388 42.1673C8.52497 50.282 1.10263 51.9497 0.875135 52.4047C0.693137 52.7687 4.97011 54.7555 7.13134 55.7034Z" fill="#00282C"/>
<rect width="24.1148" height="27.7548" transform="matrix(-1 0 0 1 139.218 55.7456)" fill="#00282C"/>
<path d="M139.447 55.7458H115.104C115.256 47.6696 114.726 31.4284 115.104 31.176C115.787 30.7209 125.683 33.906 131.939 42.2097C138.053 50.3243 145.475 51.9921 145.703 52.4471C145.885 52.8111 141.608 54.7979 139.447 55.7458Z" fill="#00282C"/>
<rect x="33.2938" y="29.541" width="24.1148" height="53.9171" fill="#00282C"/>
<path d="M32.9578 29.5833H57.3001C57.1484 21.5071 57.6786 5.2659 57.3001 5.0135C56.6176 4.55846 46.7214 7.74353 40.4652 16.0472C34.3514 24.1618 26.929 25.8296 26.7016 26.2846C26.5196 26.6486 30.7965 28.6354 32.9578 29.5833Z" fill="#00282C"/>
<rect width="24.1148" height="53.9171" transform="matrix(-1 0 0 1 113.176 29.5411)" fill="#00282C"/>
<path d="M113.512 29.5834H89.1699C89.3216 21.5072 88.7913 5.26602 89.1699 5.01362C89.8524 4.55858 99.7486 7.74365 106.005 16.0473C112.119 24.162 119.541 25.8297 119.768 26.2847C119.95 26.6487 115.673 28.6355 113.512 29.5834Z" fill="#00282C"/>
<path d="M70.1565 32.4795H72.4925V39.9951C72.4925 40.8701 72.305 41.6071 71.93 42.2061C71.5602 42.805 71.0471 43.2555 70.3909 43.5576C69.7399 43.8597 68.9899 44.0107 68.1409 44.0107C67.2919 44.0107 66.5367 43.8597 65.8753 43.5576C65.219 43.2555 64.7034 42.805 64.3284 42.2061C63.9586 41.6071 63.7737 40.8701 63.7737 39.9951V32.4795H66.1175V39.9951C66.1175 40.5055 66.1982 40.9222 66.3596 41.2451C66.5211 41.568 66.7529 41.805 67.055 41.9561C67.3623 42.1071 67.7242 42.1826 68.1409 42.1826C68.568 42.1826 68.93 42.1071 69.2268 41.9561C69.5289 41.805 69.7581 41.568 69.9143 41.2451C70.0758 40.9222 70.1565 40.5055 70.1565 39.9951V32.4795ZM78.8518 39.7998H75.9534V37.9717H78.8518C79.2998 37.9717 79.6643 37.8988 79.9456 37.7529C80.2268 37.6019 80.4326 37.3936 80.5628 37.1279C80.693 36.8623 80.7581 36.5628 80.7581 36.2295C80.7581 35.891 80.693 35.5758 80.5628 35.2842C80.4326 34.9925 80.2268 34.7581 79.9456 34.5811C79.6643 34.404 79.2998 34.3154 78.8518 34.3154H76.7659V43.8545H74.4221V32.4795H78.8518C79.7425 32.4795 80.5055 32.641 81.1409 32.9639C81.7815 33.2816 82.2711 33.7217 82.6096 34.2842C82.9482 34.8467 83.1175 35.4899 83.1175 36.2139C83.1175 36.9482 82.9482 37.5837 82.6096 38.1201C82.2711 38.6566 81.7815 39.0706 81.1409 39.3623C80.5055 39.654 79.7425 39.7998 78.8518 39.7998Z" fill="#9747FF"/>
</svg>
